<?xml version="1.0" encoding="utf-8"?>
<!-- Generator: Adobe Illustrator 16.2.1, SVG Export Plug-In . SVG Version: 6.00 Build 0)  -->
<!DOCTYPE svg PUBLIC "-//W3C//DTD SVG 1.1//EN" "http://www.w3.org/Graphics/SVG/1.1/DTD/svg11.dtd">
<svg version="1.1" id="Layer_1" xmlns="http://www.w3.org/2000/svg" xmlns:xlink="http://www.w3.org/1999/xlink" x="0px" y="0px"
	 width="275px" height="275px" viewBox="0 0 275 275" enable-background="new 0 0 275 275" xml:space="preserve">
<rect x="50" y="50" fill="none" width="175" height="175"/>
<g>
	<g>
		<path fill="#333333" d="M50,82.5c0,4.142,3.358,7.5,7.5,7.5h160c4.143,0,7.5-3.358,7.5-7.5s-3.357-7.5-7.5-7.5h-160
			C53.358,75,50,78.358,50,82.5C50,82.5,50,78.358,50,82.5z"/>
	</g>
	<g>
		<path fill="#333333" d="M50,142.5c0,4.143,3.358,7.5,7.5,7.5h160c4.143,0,7.5-3.357,7.5-7.5l0,0c0-4.143-3.357-7.5-7.5-7.5h-160
			C53.358,135,50,138.357,50,142.5L50,142.5z"/>
	</g>
	<g>
		<path fill="#333333" d="M50,112.5c0,4.142,3.358,7.5,7.5,7.5h160c4.143,0,7.5-3.358,7.5-7.5c0-4.142-3.357-7.5-7.5-7.5h-160
			C53.358,105,50,108.358,50,112.5C50,112.5,50,108.358,50,112.5z"/>
	</g>
	<g>
		<path fill="#333333" d="M50,217.5c0,4.143,3.358,7.5,7.5,7.5h160c4.143,0,7.5-3.357,7.5-7.5v-45c0-4.143-3.357-7.5-7.5-7.5h-160
			c-4.142,0-7.5,3.357-7.5,7.5V217.5z"/>
	</g>
</g>
</svg>
